<svg xmlns="http://www.w3.org/2000/svg" version="1.1" xmlns:xlink="http://www.w3.org/1999/xlink" xmlns:svgjs="http://svgjs.dev/svgjs" width="1000" height="1000" viewBox="0 0 1000 1000"><rect width="1000" height="1000" fill="#ffffff"></rect><g transform="matrix(0.7,0,0,0.7,150.00077059784894,106.25)"><svg viewBox="0 0 320 360" data-background-color="#000000" preserveAspectRatio="xMidYMid meet" height="1125" width="1000" xmlns="http://www.w3.org/2000/svg" xmlns:xlink="http://www.w3.org/1999/xlink"><defs></defs><g id="tight-bounds" transform="matrix(1,0,0,1,0.00010353528136874957,0)"><svg viewBox="0 0 320 360" height="360" width="320"><g><svg></svg></g><g><svg viewBox="0 0 320 360" height="360" width="320"><g><path d="M307.925 179.999l6.575-11.387c11.322-19.607 4.604-44.679-15.003-56.001l-11.387-6.575v-13.151c0-22.639-18.354-40.994-40.994-40.994h-13.151l-6.575-11.387c-11.322-19.607-36.393-26.325-56.001-15.003l-11.39 6.572-11.387-6.576c-19.607-11.318-44.679-4.6-56.001 15.007l-6.575 11.387h-13.151c-22.639 0-40.994 18.354-40.994 40.994v13.151l-11.387 6.575c-19.607 11.322-26.325 36.393-15.003 56.001l6.572 11.387-6.576 11.387c-11.318 19.607-4.6 44.679 15.007 56l11.387 6.576v13.15c0 22.639 18.354 40.994 40.994 40.994h13.151l6.575 11.387c11.322 19.607 36.393 26.325 56.001 15.003l11.387-6.571 11.387 6.575c19.607 11.322 44.679 4.604 56-15.003l6.576-11.387h13.15c22.639 0 40.994-18.354 40.994-40.994v-13.151l11.387-6.575c19.607-11.322 26.325-36.393 15.003-56.001zM297.702 115.716c8.655 4.996 14.842 13.062 17.428 22.713 2.586 9.65 1.261 19.734-3.735 28.384l-5.538 9.596-17.747-30.74v-35.494zM251.155 271.155l-57.791 33.365h-66.731l-57.791-33.365-33.365-57.791v-66.731l33.365-57.791 57.791-33.365h66.731l57.791 33.365 33.365 57.791v66.731zM284.517 220.539v31.351l-27.151 15.676zM247.566 277.366l-15.676 27.151h-31.351zM187.15 308.106l-27.151 15.676-27.151-15.676zM119.459 304.517h-31.352l-15.676-27.151zM62.632 267.566l-27.151-15.676v-31.351zM31.891 207.15l-15.675-27.151 15.675-27.151zM35.481 139.459v-31.352l27.151-15.676zM72.431 82.632l15.676-27.151h31.352zM132.848 51.891l27.151-15.675 27.151 15.675zM200.539 55.481h31.351l15.676 27.151zM257.366 92.431l27.151 15.676v31.352zM288.106 152.848l15.676 27.151-15.676 27.151zM247.112 55.481c9.992 0 19.384 3.889 26.452 10.956 7.063 7.063 10.956 16.46 10.957 26.452v11.079l-30.741-17.747-17.747-30.74zM173.18 28.606c8.655-4.996 18.735-6.322 28.385-3.735 9.65 2.586 17.716 8.777 22.712 17.428l5.538 9.596h-35.494l-30.741-17.747zM95.716 42.295c4.996-8.655 13.062-14.842 22.713-17.428 9.65-2.586 19.734-1.261 28.384 3.736l9.596 5.537-30.74 17.747h-35.494zM35.481 92.885c0-9.992 3.889-19.384 10.956-26.452 7.063-7.063 16.46-10.956 26.452-10.956h11.079l-17.747 30.74-30.74 17.747zM8.606 166.817c-4.996-8.655-6.322-18.735-3.735-28.385 2.586-9.65 8.777-17.716 17.428-22.712l9.596-5.538v35.495l-17.747 30.74zM22.295 244.281c-8.655-4.996-14.842-13.062-17.428-22.712-2.586-9.65-1.261-19.734 3.736-28.385l5.537-9.596 17.747 30.74v35.495zM72.885 304.517c-9.992 0-19.384-3.889-26.452-10.957-7.063-7.063-10.956-16.46-10.956-26.451v-11.08l30.74 17.747 17.747 30.741zM146.817 331.391c-8.655 4.996-18.735 6.322-28.385 3.735-9.65-2.586-17.716-8.777-22.712-17.428l-5.538-9.596h35.495l30.74 17.747zM224.281 317.702c-4.996 8.655-13.062 14.842-22.712 17.428-9.65 2.586-19.734 1.261-28.385-3.735l-9.596-5.538 30.74-17.747h35.495zM284.517 267.112c0 9.992-3.889 19.384-10.957 26.452-7.063 7.063-16.46 10.956-26.451 10.957h-11.08l17.747-30.741 30.741-17.747zM315.13 221.565c-2.586 9.65-8.777 17.716-17.428 22.712l-9.596 5.538v-35.494l17.747-30.741 5.538 9.596c4.996 8.658 6.326 18.739 3.739 28.389z" fill="#000000" fill-rule="nonzero" stroke="none" stroke-width="1" stroke-linecap="butt" stroke-linejoin="miter" stroke-miterlimit="10" stroke-dasharray="" stroke-dashoffset="0" font-family="none" font-weight="none" font-size="none" text-anchor="none" style="mix-blend-mode: normal" data-fill-palette-color="tertiary"></path></g><g transform="matrix(1,0,0,1,64,146.79681336874035)"><svg viewBox="0 0 192 66.40637326251931" height="66.40637326251931" width="192"><g><svg viewBox="0 0 192 66.40637326251931" height="66.40637326251931" width="192"><g><svg viewBox="0 0 192 66.40637326251931" height="66.40637326251931" width="192"><g><svg viewBox="0 0 192 66.40637326251931" height="66.40637326251931" width="192"><g><svg viewBox="0 0 192 66.40637326251931" height="66.40637326251931" width="192"><g><svg viewBox="0 0 192 66.40637326251931" height="66.40637326251931" width="192"><g transform="matrix(1,0,0,1,0,0)"><svg width="192" viewBox="-0.35502248441799994 -40.6 142.105022484418 49.150000000000006" height="66.40637326251931" data-palette-color="#ffbc00"><path d="M66.33-26.05Q68.75-31.45 70.6-34.23 72.45-37 74.08-37.58 75.7-38.15 76.28-38.15 76.85-38.15 76.85-38L76.85-38Q76.85-37.85 76.2-37.52 75.55-37.2 73.98-34.9 72.4-32.6 70-27.85 67.6-23.1 65.8-17.8L65.8-17.8Q68.85-17.8 69.67-18.1 70.5-18.4 70.67-18.2 70.85-18 70.2-17.55L70.2-17.55Q68.55-16.4 65.35-16.2L65.35-16.2Q65.3-16.1 64.55-13.8L64.55-13.8Q62.05-6.05 62.05-2.95L62.05-2.95Q62.05-1.2 62.68-0.5 63.3 0.2 64 0.2 64.7 0.2 65.55-0.4L65.55-0.4Q68.4-2.5 71.8-9.45L71.8-9.45Q72.2-10.3 72.58-10.15 72.95-10 72.55-9.1L72.55-9.1Q70.7-5.15 69.48-3.3 68.25-1.45 66.7 0.1L66.7 0.1Q64.65 2.05 62.6 2.05L62.6 2.05Q60.3 2.05 59.4 0.15L59.4 0.15Q58.95-0.75 58.95-1.5 58.95-2.25 58.98-3.08 59-3.9 59.15-5.23 59.3-6.55 59.88-8.53 60.45-10.5 60.78-11.53 61.1-12.55 61.75-14.3 62.4-16.05 62.45-16.2L62.45-16.2Q60.3-16.2 45.5-16.85L45.5-16.85Q42.45-7.75 35.9-0.55L35.9-0.55Q32.7 3 28.45 5.4L28.45 5.4Q22.75 8.55 16.45 8.55L16.45 8.55Q13.8 8.55 10.55 7.78 7.3 7 4.4 4.83 1.5 2.65 0.28-1.05-0.95-4.75 0.2-9.25L0.2-9.25Q0.8-11.55 2.88-13.55 4.95-15.55 6.3-15.6L6.3-15.6Q6.8-15.6 6.9-15.48 7-15.35 6.83-15.18 6.65-15 6.4-14.9L6.4-14.9Q4.9-14.25 3.3-12.05L3.3-12.05Q1.2-9.15 1.2-5.3L1.2-5.3Q1.2 0.7 7 3.65L7 3.65Q10.5 5.4 15.2 5.4L15.2 5.4Q17.25 5.4 19.05 5L19.05 5Q36 1.2 42.9-16.95L42.9-16.95Q41.6-16.95 40.38-16.38 39.15-15.8 38.78-15.8 38.4-15.8 38.35-16.1L38.35-16.1Q38.35-16.95 39.55-17.73 40.75-18.5 41.65-18.6L41.65-18.6 43.6-18.6Q46.8-26.6 50.9-34.8L50.9-34.8Q49.6-34.65 47.2-34.45 44.8-34.25 43.3-34.1 41.8-33.95 39.6-33.6 37.4-33.25 35.95-32.77 34.5-32.3 32.73-31.45 30.95-30.6 29.75-29.5L29.75-29.5Q26.9-26.8 25.7-22.9L25.7-22.9Q25.2-21.3 25.2-19.5 25.2-17.7 26.5-16 27.8-14.3 29.95-14.3L29.95-14.3Q34.2-14.3 36-19.2L36-19.2Q36.85-21.5 36.85-22.43 36.85-23.35 36.52-23.83 36.2-24.3 36.7-24.4L36.7-24.4Q37.05-24.45 37.3-24L37.3-24Q37.9-22.7 37.9-21.2 37.9-19.7 36.9-17.95L36.9-17.95Q35.2-14.85 32.3-13.8L32.3-13.8Q30.9-13.3 29.5-13.3 28.1-13.3 26.7-13.9L26.7-13.9Q24.05-15.05 22.8-17.8L22.8-17.8Q22-19.45 22-20.95 22-22.45 22.48-24.38 22.95-26.3 24.35-28.3 25.75-30.3 27.85-31.53 29.95-32.75 32.05-33.55 34.15-34.35 37.02-34.75 39.9-35.15 42.03-35.35 44.15-35.55 47.15-35.7 50.15-35.85 51.6-36L51.6-36Q52.15-36.95 53.28-38.33 54.4-39.7 55.2-39.93 56-40.15 56.45-40.15L56.45-40.15Q58.3-40.15 58.3-38.58 58.3-37 56.25-35.95 54.2-34.9 52.4-34.9L52.4-34.9Q51.05-32.3 48.58-25.63 46.1-18.95 45.95-18.6L45.95-18.6Q49.7-18.6 55.63-18.18 61.55-17.75 62.9-17.75L62.9-17.75Q63.9-20.65 66.33-26.05ZM55.8-38.6L55.8-38.6Q55.2-38.6 53.3-36.15L53.3-36.15Q56.55-36.65 56.5-37.9L56.5-37.9Q56.45-38.45 55.95-38.55L55.95-38.55Q55.9-38.6 55.8-38.6ZM90.6-17.9L90.6-17.9Q90.6-21.35 87.35-21.35L87.35-21.35Q86.9-21.35 86.25-21.28 85.6-21.2 85.35-21.6L85.35-21.6Q84.95-22.15 86.65-22.35L86.65-22.35Q87.25-22.45 87.85-22.45L87.85-22.45Q90.75-22.45 91.8-19.95L91.8-19.95Q92.25-18.9 92.25-17.28 92.25-15.65 90.85-13.2L90.85-13.2Q88.4-8.75 83.15-6.55L83.15-6.55Q81.4-5.8 79.52-5.8 77.65-5.8 75.65-6.75L75.65-6.75Q71.95-8.5 70.5-12.6L70.5-12.6Q69.95-14.2 69.95-16.63 69.95-19.05 71.3-22.75L71.3-22.75Q74.4-30 81.5-35.1L81.5-35.1Q89.1-40.6 95.7-40.6L95.7-40.6Q101.3-40.6 103.2-36.1L103.2-36.1Q104.05-34.15 104.05-31.4L104.05-31.4Q104.05-30.5 103.95-29.55L103.95-29.55Q103.45-25.2 101.35-19.6L101.35-19.6Q101-18.65 101-18.32 101-18 101.15-18L101.15-18Q101.4-17.95 102-19.05L102-19.05Q105.7-25.8 110.15-31.15L110.15-31.15Q111.6-32.9 113.65-34L113.65-34Q115.9-35.2 117.67-35.2 119.45-35.2 120.47-33.9 121.5-32.6 121.5-30.45L121.5-30.45Q121.5-25.4 117.55-13.6L117.55-13.6Q116.75-11.25 116.55-10.6L116.55-10.6Q120.6-16.95 126.72-24.58 132.85-32.2 137.6-33.6L137.6-33.6Q138.45-33.85 139.1-33.85L139.1-33.85Q141-33.85 141.55-31.95L141.55-31.95Q141.75-31.3 141.75-30.45L141.75-30.45Q141.75-27.9 139.75-23.9L139.75-23.9Q135.65-15.7 134.15-10.85L134.15-10.85Q132.1-4.45 132.1-2.1 132.1 0.25 132.55 1.8L132.55 1.8Q133.45 4.9 137.3 4.9L137.3 4.9Q137.5 4.9 138.12 4.88 138.75 4.85 138.82 5.1 138.9 5.35 138.47 5.55 138.05 5.75 137.62 5.75 137.2 5.75 136.95 5.7L136.95 5.7Q129.05 4.9 129.05-2.4L129.05-2.4Q129.05-5.05 130.12-8.43 131.2-11.8 131.95-13.6L131.95-13.6Q133.15-16.5 137-24.95L137-24.95Q138.35-28.1 138.35-29.75 138.35-31.4 136.95-31.4L136.95-31.4Q135-31.4 130.9-27.4L130.9-27.4Q128.8-25.3 126.35-22.28 123.9-19.25 119.1-11.68 114.3-4.1 113-1L113-1Q111.85 1.7 109.95 1.7L109.95 1.7Q108.6 1.7 108.35 0.75L108.35 0.75Q108.2 0.35 108.35 0.13 108.5-0.1 109.3-1.55 110.1-3 110.95-4.6 111.8-6.2 112.97-8.95 114.15-11.7 115.15-14.55L115.15-14.55Q117.55-21.6 118.4-29.05L118.4-29.05Q118.5-29.9 118.5-31.18 118.5-32.45 117.82-33.2 117.15-33.95 116.4-33.95L116.4-33.95Q113.95-33.95 111-30.25L111-30.25Q107-25.3 104.05-20.53 101.1-15.75 99.52-12.5 97.95-9.25 95.87-4.67 93.8-0.1 93.67 0.2 93.55 0.5 93.32 0.95 93.1 1.4 92.95 1.8L92.95 1.8Q92.3 3.25 90.15 3.25L90.15 3.25Q88.9 3.25 88.8 2.45L88.8 2.45Q88.8 2.3 88.85 2.1L88.85 2.1Q92.15-3 96.15-13.35L96.15-13.35Q101.25-26.45 101.25-32.45L101.25-32.45Q101.25-39.6 95.35-39.6L95.35-39.6Q91.55-39.6 85.77-35.95 80-32.3 76.2-26.6L76.2-26.6Q74.7-24.35 73.95-22.25L73.95-22.25Q72.65-18.4 72.65-16.15L72.65-16.15Q72.65-9.7 76.95-7.65L76.95-7.65Q78.45-6.9 80-6.9L80-6.9Q85.4-6.9 88.85-12.75L88.85-12.75Q90.6-15.7 90.6-17.9Z" opacity="1" transform="matrix(1,0,0,1,0,0)" fill="#000000" class="undefined-text-0" data-fill-palette-color="primary" id="text-0"></path></svg></g></svg></g></svg></g></svg></g></svg></g></svg></g></svg></g></svg></g></svg><rect width="320" height="360" fill="none" stroke="none" visibility="hidden"></rect></g></svg></g></svg>